<?xml version="1.0" standalone="no"?>
<!DOCTYPE svg PUBLIC "-//W3C//DTD SVG 20010904//EN"
 "http://www.w3.org/TR/2001/REC-SVG-20010904/DTD/svg10.dtd">
<svg version="1.0" xmlns="http://www.w3.org/2000/svg"
 width="825.000000pt" height="492.000000pt" viewBox="0 0 825.000000 492.000000"
 preserveAspectRatio="xMidYMid meet">

<g transform="translate(0.000000,492.000000) scale(0.100000,-0.100000)"
fill="#000000" stroke="none">
<path d="M0 2460 l0 -2460 4125 0 4125 0 0 2460 0 2460 -4125 0 -4125 0 0
-2460z m8197 2436 c-4 -11 -706 -1201 -1822 -3091 -117 -198 -403 -682 -635
-1075 -232 -393 -423 -716 -425 -718 -1 -2 -42 64 -90 145 -49 81 -276 464
-506 850 -230 386 -554 930 -720 1210 -165 279 -304 512 -308 516 -4 4 -49 6
-99 5 l-91 -3 254 -440 c228 -395 253 -442 241 -460 -7 -11 -255 -424 -551
-918 -296 -493 -541 -897 -545 -897 -5 0 -39 53 -77 118 -38 64 -145 245 -238
402 -92 157 -616 1043 -1163 1970 -547 927 -1068 1809 -1157 1960 -89 151
-183 310 -209 353 -25 43 -46 81 -46 83 0 2 1843 4 4096 4 3449 0 4095 -2
4091 -14z"/>
</g>
</svg>
